<?xml version="1.0" encoding="UTF-8" standalone="no"?>
<svg
   xmlns:dc="http://purl.org/dc/elements/1.1/"
   xmlns:cc="http://creativecommons.org/ns#"
   xmlns:rdf="http://www.w3.org/1999/02/22-rdf-syntax-ns#"
   xmlns:svg="http://www.w3.org/2000/svg"
   xmlns="http://www.w3.org/2000/svg"
   xmlns:sodipodi="http://sodipodi.sourceforge.net/DTD/sodipodi-0.dtd"
   xmlns:inkscape="http://www.inkscape.org/namespaces/inkscape"
   fill="none"
   viewBox="0 0 31 24.357"
   stroke-width="1.5"
   stroke="currentColor"
   class="size-6"
   version="1.1"
   id="svg845"
   sodipodi:docname="emailsymbol.svg"
   width="31"
   height="24.357"
   inkscape:version="1.0.1 (3bc2e813f5, 2020-09-07)">
  <metadata
     id="metadata851">
    <rdf:RDF>
      <cc:Work
         rdf:about="">
        <dc:format>image/svg+xml</dc:format>
        <dc:type
           rdf:resource="http://purl.org/dc/dcmitype/StillImage" />
        <dc:title></dc:title>
      </cc:Work>
    </rdf:RDF>
  </metadata>
  <defs
     id="defs849" />
  <sodipodi:namedview
     pagecolor="#ffffff"
     bordercolor="#666666"
     borderopacity="1"
     objecttolerance="10"
     gridtolerance="10"
     guidetolerance="10"
     inkscape:pageopacity="0"
     inkscape:pageshadow="2"
     inkscape:window-width="1566"
     inkscape:window-height="1020"
     id="namedview847"
     showgrid="false"
     inkscape:zoom="16.479167"
     inkscape:cx="12"
     inkscape:cy="12"
     inkscape:window-x="64"
     inkscape:window-y="0"
     inkscape:window-maximized="0"
     inkscape:current-layer="svg845" />
  <path
     stroke-linecap="round"
     stroke-linejoin="round"
     d="M 29.892531,4.4288192 V 19.928471 a 3.3213537,3.3213537 0 0 1 -3.321354,3.321353 H 4.4288192 A 3.3213537,3.3213537 0 0 1 1.1074654,19.928471 V 4.4288192 m 28.7850656,0 A 3.3213537,3.3213537 0 0 0 26.571177,1.1074655 H 4.4288192 A 3.3213537,3.3213537 0 0 0 1.1074654,4.4288192 m 28.7850656,0 v 0.3587061 a 3.3213537,3.3213537 0 0 1 -1.579489,2.828317 L 17.241864,14.428308 a 3.3213537,3.3213537 0 0 1 -3.483731,0 L 2.6869536,7.6173185 A 3.3213537,3.3213537 0 0 1 1.1074654,4.7890015 V 4.4288192"
     id="path843"
     style="stroke-width:2.21493;stroke-miterlimit:4;stroke-dasharray:none" />
</svg>
